<?xml version="1.0" standalone="no"?>
<!DOCTYPE svg PUBLIC "-//W3C//DTD SVG 20010904//EN"
 "http://www.w3.org/TR/2001/REC-SVG-20010904/DTD/svg10.dtd">
<svg version="1.0" xmlns="http://www.w3.org/2000/svg"
 width="300.000000pt" height="300.000000pt" viewBox="0 0 300.000000 300.000000"
 preserveAspectRatio="xMidYMid meet">
<metadata>
Created by potrace 1.10, written by Peter Selinger 2001-2011
</metadata>
<g transform="translate(0.000000,300.000000) scale(0.050000,-0.050000)"
fill="#000000" stroke="none">
<path d="M3870 5980 c-377 -43 -743 -249 -1089 -613 -170 -179 -513 -535 -951
-987 -1401 -1446 -1518 -1580 -1652 -1903 -588 -1421 823 -2919 2202 -2337
315 133 393 202 1378 1210 268 275 755 770 1081 1100 325 330 635 658 688 729
915 1230 -119 2976 -1657 2801z m557 -391 c617 -158 1062 -731 1062 -1369 0
-409 -130 -696 -488 -1073 -489 -515 -991 -1027 -1003 -1022 -31 12 -1958
1924 -1953 1937 5 16 339 361 904 935 422 430 558 526 841 595 146 36 491 34
637 -3z m-3264 -3069 c70 -70 67 -93 -35 -260 -213 -350 -164 -754 134 -1115
184 -222 -47 -355 -247 -142 -360 384 -423 988 -146 1403 123 183 196 212 294
114z"/>
</g>
</svg>
